
        <svg xmlns="http://www.w3.org/2000/svg" xmlns:xlink="http://www.w3.org/1999/xlink" version="1.1" width="3260.8695652173915" height="1734.9314424182312" viewBox="0 0 3260.8695652173915 1734.9314424182312">
			
			<g transform="scale(13.043478260869565) translate(10, 10)">
				<defs id="SvgjsDefs3418"/><g id="SvgjsG3419" featureKey="nameFeature-0" transform="matrix(2.5391894706706153,0,0,2.5391894706706153,0.9876725833812521,-40.525464048765414)" fill="#000"><path d="M7.76 32.519999999999996 c-0.2 0 -0.32 -0.16 -0.4 -0.16 s-2.32 1.16 -3.64 1.92 c-0.84 0.52 -1.76 1.04 -2.24 1.48 c-0.08 0.28 -0.12 0.56 -0.16 0.84 c0.76 0.28 3.16 0.16 4.96 0 c2.52 -0.24 5.8 -0.76 8.4 -1.4 c0.6 -0.12 0.44 0.6 0.12 0.68 c-2.2 0.72 -5.84 1.24 -8.48 1.52 c-2.08 0.2 -3.96 0.24 -5.16 0.08 l-0.4 2.28 c-0.6 3.64 -0.24 4.72 -0.68 4.72 c-0.48 0 -0.4 -1.96 -0.08 -4.96 c0.08 -0.72 0.16 -1.44 0.28 -2.2 c-0.36 -0.12 -0.56 -0.28 -0.64 -0.44 c-0.12 -0.36 0.12 -0.88 0.96 -1.6 c0.32 -2.08 0.84 -4.72 1.72 -8.44 c1.96 -8.64 2.92 -10.76 3.6 -10.76 c0.32 0 0.44 0.92 0.32 1.28 c-0.12 0.48 -0.64 1.32 -1.08 2.28 c-0.12 0.2 -1.16 4.16 -1.92 7.72 c-0.56 2.48 -1.04 4.88 -1.48 7.04 c0.2 -0.16 0.44 -0.32 0.72 -0.48 c2.08 -1.36 4.92 -2.68 5.16 -2.68 c0.28 0 0.6 0.48 0.6 0.68 s-0.16 0.6 -0.48 0.6 z M18.274 40.48 c-2.08 0.16 -3 -1.6 -2.16 -3.44 c0.8 -1.84 2.4 -2.56 3.24 -2.4 c0.76 0.12 1 0.76 0.68 1.68 c-0.48 1.24 -1.96 2.12 -3.4 2.6 c0.16 0.56 0.68 0.84 1.4 0.8 c1.84 -0.16 4.4 -1.44 11.64 -4.6 c0.52 -0.24 0.64 0.28 0.32 0.4 c-6.08 2.68 -9.52 4.8 -11.72 4.96 z M16.834 37.32 c-0.2 0.44 -0.28 0.8 -0.28 1.12 c1.16 -0.4 2.56 -1.52 2.88 -2.4 c0.12 -0.36 0.08 -0.72 -0.2 -0.8 c-0.44 -0.12 -1.72 0.4 -2.4 2.08 z M32.428000000000004 41.24 c-0.88 -0.12 -1.48 -1.04 -0.52 -3.04 c0.4 -0.88 0.68 -1.4 0.68 -1.6 c0 -0.16 -0.12 -0.28 -0.96 -0.6 c-1.08 -0.4 -1.24 -1.44 -1.04 -2.24 c0.36 -1.44 1.52 -1.88 2.12 -1.76 c0.32 0.08 0.76 0.52 0.72 0.84 c-0.12 1.04 -0.76 1.72 -1.84 2.32 c0.08 0.08 0.2 0.16 0.36 0.2 c1.48 0.6 1.68 0.72 1.68 1.08 c0 0.32 -0.44 0.96 -0.96 2.08 c-0.6 1.24 -0.64 1.76 0.04 1.84 c2.24 0.28 7.96 -1.52 12.16 -5.12 c0.4 -0.36 0.88 -0.08 0.52 0.24 c-4.24 4.04 -10.92 6.04 -12.96 5.76 z M31.388 33.96 c-0.08 0.24 -0.12 0.48 -0.04 0.72 c1.16 -0.72 1.44 -1.32 1.48 -1.88 c0 -0.08 0 -0.12 -0.08 -0.16 c-0.4 -0.12 -1.16 0.68 -1.36 1.32 z M50.782000000000004 40.2 c2.8 0 10.92 -3.76 13.36 -5.08 c0.2 -0.12 1.04 -0.08 0.36 0.36 c-2.64 1.72 -11.12 5.56 -13.76 5.56 c-1.96 0 -2.52 -1.16 -2.52 -2 s0.16 -1.24 0.08 -1.32 c-0.12 -0.12 -0.36 -0.08 -1.64 0.6 c-1.16 0.68 -2.44 1.2 -2.84 1.2 c-0.56 0 -0.96 -0.36 -0.96 -0.6 c0 -0.76 0.48 -1.8 2 -2.92 c1.28 -1 2.08 -1.2 2.76 -1.2 c0.92 0 1.48 1.44 1.08 1.44 s-0.52 -0.8 -0.96 -0.8 c-0.4 0 -1.2 0.32 -2.32 1.08 c-1.04 0.68 -1.84 1.84 -1.84 2.16 c0 0.08 0.04 0.12 0.16 0.12 c0.36 0 1.04 -0.28 2.16 -0.84 c1.52 -0.72 2.52 -1.28 3 -1.28 c0.16 0 0.52 0.08 0.52 0.36 c0 0.32 -0.4 1.04 -0.4 1.96 c0 0.68 0.72 1.2 1.76 1.2 z M63.056000000000004 50 c-0.52 0.04 -0.92 -1.48 -0.68 -4.48 c0.48 -7.08 1.64 -13.2 2.92 -18.76 c1.96 -8.64 2.96 -10.8 3.6 -10.8 c0.36 0 0.44 0.96 0.32 1.32 c-0.12 0.48 -0.64 1.32 -1.08 2.28 c-0.08 0.2 -1.16 4.16 -1.92 7.72 c-0.64 3 -2.4 11.2 -3.08 18.56 c-0.32 3.68 0.32 4.12 -0.08 4.16 z M76.21000000000001 40.2 c2.8 0 10.92 -3.76 13.36 -5.08 c0.2 -0.12 1.04 -0.08 0.36 0.36 c-2.64 1.72 -11.12 5.56 -13.76 5.56 c-1.96 0 -2.52 -1.16 -2.52 -2 s0.16 -1.24 0.08 -1.32 c-0.12 -0.12 -0.36 -0.08 -1.64 0.6 c-1.16 0.68 -2.44 1.2 -2.84 1.2 c-0.56 0 -0.96 -0.36 -0.96 -0.6 c0 -0.76 0.48 -1.8 2 -2.92 c1.28 -1 2.08 -1.2 2.76 -1.2 c0.92 0 1.48 1.44 1.08 1.44 s-0.52 -0.8 -0.96 -0.8 c-0.4 0 -1.2 0.32 -2.32 1.08 c-1.04 0.68 -1.84 1.84 -1.84 2.16 c0 0.08 0.04 0.12 0.16 0.12 c0.36 0 1.04 -0.28 2.16 -0.84 c1.52 -0.72 2.52 -1.28 3 -1.28 c0.16 0 0.52 0.08 0.52 0.36 c0 0.32 -0.4 1.04 -0.4 1.96 c0 0.68 0.72 1.2 1.76 1.2 z"/></g><g id="SvgjsG3420" featureKey="sloganFeature-0" transform="matrix(0.4944656987810808,0,0,0.4944656987810808,22.43502346314744,103.03031302717247)" fill="#000"><path d="M7.9785 20.18555 c-3.8672 0 -6.8359 -2.6465 -6.8359 -7.0508 c0 -4.4434 2.9883 -7.1289 6.9043 -7.1289 c2.5391 0 4.7168 1.1133 5.9082 3.2227 l-1.7188 0.91797 c-0.86914 -1.6211 -2.4219 -2.373 -4.1895 -2.373 c-2.793 0 -4.9512 1.8945 -4.9512 5.3223 c0 3.3789 2.1094 5.3418 5.0195 5.3418 c2.3438 0 4.1797 -1.3184 4.502 -3.9355 l-4.5117 0 l0 -1.6211 l6.3965 0 l0 7.1191 l-1.582 0 l0 -2.4805 c-0.9082 1.6895 -2.6172 2.666 -4.9414 2.666 z M33.47414609375 20.18555 c-3.916 0 -6.9043 -2.6953 -6.9043 -7.0996 c0 -4.3945 2.9883 -7.0801 6.9043 -7.0801 c3.8965 0 6.8945 2.6855 6.8945 7.0801 c0 4.4043 -2.998 7.0996 -6.8945 7.0996 z M33.47414609375 18.3594 c2.7637 0 4.9512 -1.9141 4.9512 -5.2734 c0 -3.3301 -2.1875 -5.2441 -4.9512 -5.2441 c-2.7734 0 -4.9707 1.9141 -4.9707 5.2441 c0 3.3594 2.1973 5.2734 4.9707 5.2734 z M53.1005765625 20 l0 -13.809 l4.5508 0 c4.248 0 6.4063 2.8516 6.4063 6.8945 c0 4.0723 -2.1582 6.9141 -6.4063 6.9141 l-4.5508 0 z M55.0439765625 18.2422 l2.5293 0 c3.0176 0 4.4531 -2.002 4.4531 -5.1563 c0 -3.1348 -1.4355 -5.1465 -4.4531 -5.1465 l-2.5293 0 l0 10.303 z M77.14106953125 12.5 l-0.12695 -6.3086 l1.7676 0 l-0.18555 6.3086 l-1.4551 0 z M96.943378125 20.18555 c-2.8809 0 -4.9902 -1.377 -5.459 -3.7207 l1.9824 -0.46875 c0.3125 1.6113 1.709 2.5391 3.5449 2.5391 c1.4746 0 2.8906 -0.60547 2.8613 -2.2656 c-0.019531 -1.6406 -1.7969 -2.0898 -3.6816 -2.6074 c-2.1387 -0.58594 -4.2773 -1.2598 -4.2773 -3.7988 c0 -2.5684 2.1191 -3.8574 4.6289 -3.8574 c2.4316 0 4.6191 1.0254 5.1367 3.3984 l-1.8848 0.47852 c-0.3418 -1.5332 -1.6211 -2.2168 -3.1641 -2.2168 c-1.3867 0 -2.7637 0.60547 -2.7637 2.1777 c0 1.4258 1.543 1.8457 3.291 2.3145 c2.1973 0.5957 4.7168 1.2793 4.7168 4.0527 c0 2.793 -2.3438 3.9746 -4.9316 3.9746 z M135.1904546875 20.18555 c-3.916 0 -6.9043 -2.6953 -6.9043 -7.0996 c0 -4.3945 2.9883 -7.0801 6.9043 -7.0801 c3.8965 0 6.8945 2.6855 6.8945 7.0801 c0 4.4043 -2.998 7.0996 -6.8945 7.0996 z M135.1904546875 18.3594 c2.7637 0 4.9512 -1.9141 4.9512 -5.2734 c0 -3.3301 -2.1875 -5.2441 -4.9512 -5.2441 c-2.7734 0 -4.9707 1.9141 -4.9707 5.2441 c0 3.3594 2.1973 5.2734 4.9707 5.2734 z M157.25828515625 20 l-3.8965 -13.809 l2.0215 0 l3.1836 11.23 l3.3789 -11.23 l1.6992 0 l3.3789 11.23 l3.1934 -11.23 l2.0117 0 l-3.8965 13.809 l-2.334 0 l-3.2031 -10.273 l-3.2031 10.273 l-2.334 0 z M193.76928125 6.191000000000001 l1.9336 0 l0 13.809 l-2.0996 0 l-7.2168 -10.957 l0 10.957 l-1.9238 0 l0 -13.809 l2.0801 0 l7.2266 10.908 l0 -10.908 z M230.0244390625 20.18555 c-3.916 0 -6.9043 -2.6855 -6.9043 -7.0996 c0 -4.3945 2.9883 -7.0801 6.9043 -7.0801 c2.793 0 5.1074 1.3867 6.1719 3.7598 l-1.7969 0.71289 c-0.80078 -1.6895 -2.4316 -2.6367 -4.375 -2.6367 c-2.7734 0 -4.9707 1.9141 -4.9707 5.2441 c0 3.3496 2.1973 5.2637 4.9707 5.2637 c1.9434 0 3.5742 -0.94727 4.375 -2.6367 l1.7969 0.72266 c-1.0645 2.3633 -3.3789 3.75 -6.1719 3.75 z M254.53371640625 20.18555 c-3.916 0 -6.9043 -2.6953 -6.9043 -7.0996 c0 -4.3945 2.9883 -7.0801 6.9043 -7.0801 c3.8965 0 6.8945 2.6855 6.8945 7.0801 c0 4.4043 -2.998 7.0996 -6.8945 7.0996 z M254.53371640625 18.3594 c2.7637 0 4.9512 -1.9141 4.9512 -5.2734 c0 -3.3301 -2.1875 -5.2441 -4.9512 -5.2441 c-2.7734 0 -4.9707 1.9141 -4.9707 5.2441 c0 3.3594 2.1973 5.2734 4.9707 5.2734 z M278.955046875 20.18555 c-2.8613 0 -5.0781 -1.6895 -5.0781 -4.8047 l0 -9.1895 l1.9434 0 l0 8.916 c0 2.2754 1.3672 3.3203 3.1348 3.3203 s3.1641 -1.0547 3.1641 -3.3203 l0 -8.916 l1.9434 0 l0 9.1895 c0 3.1152 -2.2266 4.8047 -5.1074 4.8047 z M306.77465234375 6.191000000000001 l1.9336 0 l0 13.809 l-2.0996 0 l-7.2168 -10.957 l0 10.957 l-1.9238 0 l0 -13.809 l2.0801 0 l7.2266 10.908 l0 -10.908 z M329.7509515625 6.191000000000001 l0 1.748 l-3.4961 0 l0 12.061 l-1.9238 0 l0 -12.061 l-3.5059 0 l0 -1.748 l8.9258 0 z M349.31886640625 20 l-3.5742 -6.2109 l-1.9336 0 l0 6.2109 l-1.9434 0 l0 -13.809 l4.6484 0 c2.8906 0 4.209 1.7676 4.209 3.9355 c0 1.9238 -1.1328 3.2617 -3.0273 3.584 l3.8965 6.2891 l-2.2754 0 z M343.81106640625 7.871 l0 4.4336 l2.4414 0 c1.7969 0 2.6074 -0.89844 2.6074 -2.207 c0 -1.2891 -0.81055 -2.2266 -2.6074 -2.2266 l-2.4414 0 z M373.26140625 6.191000000000001 l-4.541 7.2266 l0 6.582 l-1.9629 0 l0 -6.5723 l-4.5508 -7.2363 l2.207 0 l3.3203 5.4785 l3.3301 -5.4785 l2.1973 0 z"/></g>
			</g>
		</svg>
	